<svg width="230" height="24" viewBox="0 0 230 24" fill="none" xmlns="http://www.w3.org/2000/svg">
<path d="M104.424 7.15253H98.9436L98.9022 7.83382C98.3253 18.334 96.492 19.4064 94.3896 19.4064C93.936 19.4064 93.5455 19.3451 93.2358 19.2V16.6011C93.4419 16.684 93.6687 16.7048 93.8541 16.7048C94.8432 16.7048 96.0177 16.0857 96.429 7.77163L96.5739 4.77979H106.998V19.2207H104.424V7.15253Z" fill="#215A38"/>
<path d="M117.446 4.55273C122.082 4.57347 125.172 7.358 125.172 12.0206C125.172 16.3741 122.144 19.4469 117.446 19.4469C112.81 19.4469 109.72 16.6615 109.72 11.9791C109.72 7.62656 112.748 4.55273 117.446 4.55273ZM117.466 17.0751C120.536 17.0751 122.452 15.0331 122.452 11.9998C122.452 9.17384 120.721 6.94621 117.424 6.92548C114.334 6.94621 112.439 8.9882 112.439 11.9998C112.439 14.8258 114.17 17.0544 117.466 17.0751Z" fill="#215A38"/>
<path d="M137.656 7.15298H130.445V19.2202H127.871V4.7793H137.656V7.15298Z" fill="#215A38"/>
<path d="M142.498 15.5697L150.369 4.7793H153.17V19.2202H150.595V8.2668L142.684 19.2202H139.923V4.7793H142.498V15.5697Z" fill="#215A38"/>
<path d="M168.83 17.6311C168.109 18.498 166.214 19.4469 163.721 19.4469C159.024 19.4262 155.892 16.6407 155.892 11.9791C155.892 7.62656 158.982 4.55273 163.762 4.55273C166.028 4.55273 167.697 5.25382 168.542 5.85218V9.44145C167.677 8.16274 165.926 6.92548 163.762 6.92548C160.609 6.92548 158.673 8.96747 158.673 11.9998C158.673 14.8051 160.383 17.0139 163.699 17.0751C166.213 17.0751 167.985 15.9199 168.829 14.4546V17.6311H168.83Z" fill="#215A38"/>
<path d="M182.181 7.15298H177.318V19.2202H174.744V7.15298H169.963V4.7793H182.181V7.15298Z" fill="#215A38"/>
<path d="M186.919 15.5697L194.789 4.7793H197.591V19.2202H195.015V8.2668L187.104 19.2202H184.344V4.7793H186.919V15.5697Z" fill="#215A38"/>
<path d="M203.917 19.2202H201.341V4.7793H203.917V10.845H206.08L210.716 4.7793H213.847L208.347 11.6497L214.733 19.2202H211.436L206.204 12.9699H203.917V19.2202Z" fill="#215A38"/>
<path d="M224.067 4.77979L230 19.2207H227.261L225.88 15.7964H219.266L217.906 19.2207H215.29L221.142 4.77979H224.067ZM220.193 13.4236H224.932L222.562 7.50307L220.193 13.4236Z" fill="#215A38"/>
<path d="M69.8065 7.18359L73.0646 4.77881H62.1602V19.2198H73.0646V16.8159H65.2724V13.1183H71.9193V10.7144H65.2724V7.18359H69.8065Z" fill="#21A038"/>
<path d="M53.9299 10.4082H50.143V7.18359H56.1885L59.4466 4.77881H47.0308V19.2198H53.5281C57.1729 19.2198 59.2631 17.566 59.2631 14.6835C59.264 11.9272 57.3696 10.4082 53.9299 10.4082ZM53.3878 16.8159H50.143V12.813H53.3878C55.3632 12.813 56.2826 13.483 56.2826 14.8144C56.2836 16.1751 55.3096 16.8159 53.3878 16.8159Z" fill="#21A038"/>
<path d="M81.8993 4.7793H75.9619V19.2202H79.0741V15.1297H81.8993C85.6881 15.1297 88.0418 13.1348 88.0418 9.94694C88.0418 6.7591 85.6881 4.7793 81.8993 4.7793ZM81.8325 12.7249H79.0741V7.18314H81.8325C83.8266 7.18314 84.9249 8.16691 84.9249 9.95354C84.9249 11.7411 83.8266 12.7249 81.8325 12.7249Z" fill="#21A038"/>
<path d="M41.6884 16.0926C40.8903 16.5336 39.9615 16.7663 39.0016 16.7663C36.1962 16.7663 34.1596 14.7611 34.1596 11.9982C34.1596 9.23534 36.1962 7.2301 39.0016 7.2301C40.0631 7.2301 41.0146 7.52881 41.8324 8.11682L44.0646 6.46965L43.9169 6.33961C42.6135 5.19282 40.8725 4.58691 38.8811 4.58691C36.7213 4.58691 34.761 5.31626 33.3616 6.64021C31.9537 7.97264 31.1792 9.84596 31.1792 11.9172C31.1792 13.9978 31.9518 15.8994 33.3541 17.2723C34.761 18.649 36.7166 19.4076 38.8613 19.4076C41.1049 19.4076 43.0633 18.6246 44.3912 17.1998C43.3664 16.444 42.3773 15.7137 42.3773 15.7137L41.6884 16.0926Z" fill="#21A038"/>
<path d="M21.4682 4.6626C22.0338 5.39477 22.5175 6.1948 22.9043 7.04759L11.9848 15.1063L7.42236 12.2426V8.79747L11.9848 11.6612L21.4682 4.6626Z" fill="#21A038"/>
<path d="M2.76918 11.9997C2.76918 11.8452 2.77295 11.6916 2.78048 11.5389L0.0155461 11.4004C0.00613518 11.5992 0.000488281 11.799 0.000488281 11.9997C0.000488281 15.3129 1.34155 18.3132 3.51077 20.4843L5.47106 18.5215C3.8025 16.8507 2.76918 14.544 2.76918 11.9997Z" fill="url(#paint0_linear_4131:4272)"/>
<path d="M11.9843 2.77134C12.1387 2.77134 12.2921 2.777 12.4445 2.78454L12.5829 0.0150774C12.3843 0.00565422 12.1848 0 11.9843 0C8.67546 0 5.67902 1.3428 3.51074 3.51483L5.47104 5.47767C7.1396 3.806 9.44339 2.77134 11.9843 2.77134Z" fill="url(#paint1_linear_4131:4272)"/>
<path d="M11.9848 21.2278C11.8304 21.2278 11.677 21.2241 11.5246 21.2165L11.3862 23.9851C11.5848 23.9945 11.7843 24.0001 11.9848 24.0001C15.2936 24.0001 18.2901 22.6573 20.4584 20.4853L18.4981 18.5225C16.8295 20.1922 14.5257 21.2278 11.9848 21.2278Z" fill="url(#paint2_linear_4131:4272)"/>
<path d="M17.1806 4.38176L19.5117 2.66203C17.4545 0.996967 14.8364 0 11.9849 0V2.77229C13.9113 2.77134 15.7003 3.36688 17.1806 4.38176Z" fill="url(#paint3_linear_4131:4272)"/>
<path d="M23.9688 11.9995C23.9688 11.2654 23.9029 10.5474 23.7768 9.84912L21.1972 11.7526C21.1991 11.8346 21.201 11.9166 21.201 11.9985C21.201 14.7077 20.0284 17.1483 18.165 18.8378L20.0256 20.8968C22.447 18.7022 23.9688 15.5284 23.9688 11.9995Z" fill="#21A038"/>
<path d="M11.9849 21.2279C9.27924 21.2279 6.84181 20.0538 5.15443 18.188L3.09814 20.0509C5.29089 22.4765 8.46049 24.0002 11.9849 24.0002V21.2279Z" fill="url(#paint4_linear_4131:4272)"/>
<path d="M5.80466 5.16003L3.94412 3.10107C1.52175 5.29666 0 8.47038 0 11.9993H2.76869C2.76964 9.28925 3.9413 6.8496 5.80466 5.16003Z" fill="url(#paint5_linear_4131:4272)"/>
<defs>
<linearGradient id="paint0_linear_4131:4272" x1="4.07061" y1="20.1377" x2="1.03862" y2="11.3848" gradientUnits="userSpaceOnUse">
<stop offset="0.1444" stop-color="#F2E913"/>
<stop offset="0.3037" stop-color="#E7E518"/>
<stop offset="0.5823" stop-color="#CADB26"/>
<stop offset="0.891" stop-color="#A3CD39"/>
</linearGradient>
<linearGradient id="paint1_linear_4131:4272" x1="4.3011" y1="4.00493" x2="12.0947" y2="1.03879" gradientUnits="userSpaceOnUse">
<stop offset="0.0592" stop-color="#0FA8E0"/>
<stop offset="0.5385" stop-color="#0099F9"/>
<stop offset="0.9234" stop-color="#0291EB"/>
</linearGradient>
<linearGradient id="paint2_linear_4131:4272" x1="11.2035" y1="22.327" x2="20.015" y2="20.338" gradientUnits="userSpaceOnUse">
<stop offset="0.1226" stop-color="#A3CD39"/>
<stop offset="0.2846" stop-color="#86C339"/>
<stop offset="0.8693" stop-color="#21A038"/>
</linearGradient>
<linearGradient id="paint3_linear_4131:4272" x1="11.4056" y1="0.928593" x2="18.94" y2="3.25028" gradientUnits="userSpaceOnUse">
<stop offset="0.0566" stop-color="#0291EB"/>
<stop offset="0.79" stop-color="#0C8ACB"/>
</linearGradient>
<linearGradient id="paint4_linear_4131:4272" x1="3.79262" y1="19.7131" x2="11.9946" y2="22.7736" gradientUnits="userSpaceOnUse">
<stop offset="0.1324" stop-color="#F2E913"/>
<stop offset="0.2977" stop-color="#EBE716"/>
<stop offset="0.5306" stop-color="#D9E01F"/>
<stop offset="0.8023" stop-color="#BBD62D"/>
<stop offset="0.9829" stop-color="#A3CD39"/>
</linearGradient>
<linearGradient id="paint5_linear_4131:4272" x1="1.03191" y1="12.3352" x2="4.33062" y2="3.76507" gradientUnits="userSpaceOnUse">
<stop offset="0.0698" stop-color="#A3CD39"/>
<stop offset="0.2599" stop-color="#81C55F"/>
<stop offset="0.9216" stop-color="#0FA8E0"/>
</linearGradient>
</defs>
</svg>