<svg width="120" height="120" viewBox="0 0 120 120" fill="none" xmlns="http://www.w3.org/2000/svg">
<path fill-rule="evenodd" clip-rule="evenodd" d="M120 60C120 26.8648 93.1352 0 60 0C26.8648 0 0 26.8648 0 60C0 93.1352 26.8648 120 60 120C93.1352 120 120 93.1352 120 60ZM9.23077 60C9.23077 31.9629 31.9629 9.23077 60 9.23077C88.0371 9.23077 110.769 31.9629 110.769 60C110.769 88.0371 88.0371 110.769 60 110.769C31.9629 110.769 9.23077 88.0371 9.23077 60ZM81.7251 75.198L66.5271 60L81.7251 44.802C83.5274 42.9997 83.5274 40.0772 81.7251 38.2749C79.9228 36.4726 77.0003 36.4726 75.198 38.2749L60 53.4729L44.802 38.2749C42.9997 36.4726 40.0772 36.4726 38.2749 38.2749C36.4726 40.0772 36.4726 42.9997 38.2749 44.802L53.4729 60L38.2749 75.198C36.4726 77.0003 36.4726 79.9228 38.2749 81.7251C40.0772 83.5274 42.9997 83.5274 44.802 81.7251L60 66.5271L75.198 81.7251C77.0003 83.5274 79.9228 83.5274 81.7251 81.7251C83.5274 79.9228 83.5274 77.0003 81.7251 75.198Z" fill="#F7142F"/>
</svg>