<svg width="121" height="28" viewBox="0 0 121 28" fill="none" xmlns="http://www.w3.org/2000/svg">
<path d="M30.3709 19.1493H26.4259L26.3961 19.6398C25.9808 27.1989 24.661 27.9709 23.1475 27.9709C22.821 27.9709 22.5398 27.9268 22.3169 27.8223V25.9513C22.4653 26.011 22.6285 26.026 22.762 26.026C23.4741 26.026 24.3196 25.5803 24.6156 19.595L24.72 17.4412H32.2246V27.8372H30.3709V19.1493Z" fill="#215A38"/>
<path d="M39.7458 17.2776C43.0832 17.2925 45.3081 19.2971 45.3081 22.6537C45.3081 25.7878 43.1279 27.9999 39.7458 27.9999C36.4085 27.9999 34.1836 25.9947 34.1836 22.6238C34.1836 19.4904 36.3638 17.2776 39.7458 17.2776ZM39.7601 26.2925C41.97 26.2925 43.3494 24.8225 43.3494 22.6388C43.3494 20.6043 42.1035 19.0007 39.7302 18.9857C37.5053 19.0007 36.1409 20.4707 36.1409 22.6388C36.1409 24.6732 37.3875 26.2776 39.7601 26.2925Z" fill="#215A38"/>
<path d="M54.2951 19.1495H49.1041V27.8367H47.2505V17.4407H54.2951V19.1495Z" fill="#215A38"/>
<path d="M57.7809 25.2087L63.4468 17.4407H65.4636V27.8367H63.61V19.9513L57.9143 27.8367H55.9272V17.4407H57.7809V25.2087Z" fill="#215A38"/>
<path d="M76.737 26.6927C76.2181 27.3168 74.8536 27.9999 73.0589 27.9999C69.6776 27.985 67.4229 25.9798 67.4229 22.6238C67.4229 19.4904 69.6477 17.2776 73.0887 17.2776C74.7201 17.2776 75.9213 17.7823 76.5297 18.2131V20.797C75.9071 19.8764 74.6463 18.9857 73.0887 18.9857C70.8191 18.9857 69.4249 20.4558 69.4249 22.6388C69.4249 24.6583 70.6559 26.2484 73.0433 26.2925C74.8529 26.2925 76.1287 25.4608 76.7364 24.4059V26.6927H76.737Z" fill="#215A38"/>
<path d="M86.3486 19.1495H82.848V27.8367H80.9944V19.1495H77.5527V17.4407H86.3486V19.1495Z" fill="#215A38"/>
<path d="M89.7594 25.2087L95.4253 17.4407H97.4422V27.8367H95.5879V19.9513L89.8929 27.8367H87.9058V17.4407H89.7594V25.2087Z" fill="#215A38"/>
<path d="M101.996 27.8367H100.142V17.4407H101.996V21.8074H103.553L106.891 17.4407H109.145L105.185 22.3867L109.783 27.8367H107.41L103.643 23.3371H101.996V27.8367Z" fill="#215A38"/>
<path d="M116.502 17.4409L120.774 27.837H118.802L117.808 25.3718H113.046L112.068 27.837H110.184L114.397 17.4409H116.502ZM113.714 23.6636H117.125L115.419 19.4014L113.714 23.6636Z" fill="#215A38"/>
<path d="M50.2537 5.17164L52.5991 3.44043H44.749V13.8365H52.5991V12.106H46.9895V9.44403H51.7746V7.7135H46.9895V5.17164H50.2537Z" fill="#21A038"/>
<path d="M38.8241 7.49303H36.0979V5.17164H40.4501L42.7956 3.44043H33.8574V13.8365H38.5348C41.1588 13.8365 42.6635 12.6459 42.6635 10.5708C42.6642 8.58656 41.3004 7.49303 38.8241 7.49303ZM38.4339 12.106H36.0979V9.22424H38.4339C39.856 9.22424 40.5179 9.70656 40.5179 10.6651C40.5185 11.6447 39.8173 12.106 38.4339 12.106Z" fill="#21A038"/>
<path d="M58.9594 3.44067H54.6851V13.8367H56.9255V10.8919H58.9594C61.687 10.8919 63.3814 9.4558 63.3814 7.16087C63.3814 4.86593 61.687 3.44067 58.9594 3.44067ZM58.9113 9.16071H56.9255V5.1712H58.9113C60.3469 5.1712 61.1375 5.87942 61.1375 7.16562C61.1375 8.45249 60.3469 9.16071 58.9113 9.16071Z" fill="#21A038"/>
<path d="M30.0114 11.5852C29.4369 11.9027 28.7682 12.0702 28.0771 12.0702C26.0575 12.0702 24.5914 10.6266 24.5914 8.63765C24.5914 6.64866 26.0575 5.20508 28.0771 5.20508C28.8413 5.20508 29.5263 5.42013 30.115 5.84343L31.7221 4.65763L31.6157 4.56402C30.6774 3.73844 29.424 3.30225 27.9904 3.30225C26.4356 3.30225 25.0243 3.82731 24.0169 4.78042C23.0034 5.73964 22.4458 7.08824 22.4458 8.57931C22.4458 10.0772 23.002 11.4461 24.0115 12.4345C25.0243 13.4256 26.4322 13.9717 27.9762 13.9717C29.5913 13.9717 31.0012 13.408 31.9571 12.3823C31.2194 11.8382 30.5073 11.3125 30.5073 11.3125L30.0114 11.5852Z" fill="#21A038"/>
<path d="M15.4549 3.35669C15.862 3.88379 16.2103 4.45972 16.4887 5.07365L8.62775 10.8751L5.34326 8.81352V6.33339L8.62775 8.39496L15.4549 3.35669Z" fill="#21A038"/>
<path d="M1.99368 8.63872C1.99368 8.52747 1.99639 8.41689 2.00181 8.307L0.0113284 8.20728C0.00455349 8.35041 0.000488281 8.49423 0.000488281 8.63872C0.000488281 11.0239 0.965919 13.1838 2.52754 14.7468L3.93876 13.3337C2.73757 12.131 1.99368 10.4703 1.99368 8.63872Z" fill="url(#paint0_linear_4131:4272)"/>
<path d="M8.6275 1.99509C8.73861 1.99509 8.84904 1.99917 8.9588 2.00459L9.05839 0.0108542C8.91544 0.00407049 8.77181 0 8.6275 0C6.24543 0 4.08829 0.966682 2.52734 2.53033L3.93856 3.94338C5.13976 2.73995 6.79827 1.99509 8.6275 1.99509Z" fill="url(#paint1_linear_4131:4272)"/>
<path d="M8.62815 15.2821C8.51704 15.2821 8.40661 15.2794 8.29686 15.2739L8.19727 17.267C8.34022 17.2738 8.48384 17.2779 8.62815 17.2779C11.0102 17.2779 13.1674 16.3112 14.7283 14.7475L13.3171 13.3345C12.1159 14.5365 10.4574 15.2821 8.62815 15.2821Z" fill="url(#paint2_linear_4131:4272)"/>
<path d="M12.3684 3.15443L14.0465 1.9164C12.5655 0.717718 10.6807 0 8.62793 0V1.99577C10.0148 1.9951 11.3027 2.42383 12.3684 3.15443Z" fill="url(#paint3_linear_4131:4272)"/>
<path d="M17.2553 8.63838C17.2553 8.10993 17.2078 7.59301 17.117 7.09033L15.26 8.46065C15.2614 8.51966 15.2627 8.57868 15.2627 8.6377C15.2627 10.588 14.4186 12.345 13.0771 13.5613L14.4166 15.0436C16.1597 13.4636 17.2553 11.1789 17.2553 8.63838Z" fill="#21A038"/>
<path d="M8.62805 15.2819C6.68025 15.2819 4.92554 14.4367 3.71079 13.0935L2.23047 14.4346C3.80903 16.1808 6.09083 17.2777 8.62805 17.2777V15.2819Z" fill="url(#paint4_linear_4131:4272)"/>
<path d="M4.17879 3.71467L2.83938 2.23242C1.09551 3.81303 0 6.09779 0 8.6383H1.99319C1.99387 6.6873 2.83735 4.93099 4.17879 3.71467Z" fill="url(#paint5_linear_4131:4272)"/>
<defs>
<linearGradient id="paint0_linear_4131:4272" x1="2.93058" y1="14.4973" x2="0.74784" y2="8.19608" gradientUnits="userSpaceOnUse">
<stop offset="0.1444" stop-color="#F2E913"/>
<stop offset="0.3037" stop-color="#E7E518"/>
<stop offset="0.5823" stop-color="#CADB26"/>
<stop offset="0.891" stop-color="#A3CD39"/>
</linearGradient>
<linearGradient id="paint1_linear_4131:4272" x1="3.09632" y1="2.88316" x2="8.70696" y2="0.747826" gradientUnits="userSpaceOnUse">
<stop offset="0.0592" stop-color="#0FA8E0"/>
<stop offset="0.5385" stop-color="#0099F9"/>
<stop offset="0.9234" stop-color="#0291EB"/>
</linearGradient>
<linearGradient id="paint2_linear_4131:4272" x1="8.06574" y1="16.0733" x2="14.4091" y2="14.6415" gradientUnits="userSpaceOnUse">
<stop offset="0.1226" stop-color="#A3CD39"/>
<stop offset="0.2846" stop-color="#86C339"/>
<stop offset="0.8693" stop-color="#21A038"/>
</linearGradient>
<linearGradient id="paint3_linear_4131:4272" x1="8.21094" y1="0.668496" x2="13.635" y2="2.33988" gradientUnits="userSpaceOnUse">
<stop offset="0.0566" stop-color="#0291EB"/>
<stop offset="0.79" stop-color="#0C8ACB"/>
</linearGradient>
<linearGradient id="paint4_linear_4131:4272" x1="2.73043" y1="14.1914" x2="8.63504" y2="16.3947" gradientUnits="userSpaceOnUse">
<stop offset="0.1324" stop-color="#F2E913"/>
<stop offset="0.2977" stop-color="#EBE716"/>
<stop offset="0.5306" stop-color="#D9E01F"/>
<stop offset="0.8023" stop-color="#BBD62D"/>
<stop offset="0.9829" stop-color="#A3CD39"/>
</linearGradient>
<linearGradient id="paint5_linear_4131:4272" x1="0.742873" y1="8.88005" x2="3.11762" y2="2.71044" gradientUnits="userSpaceOnUse">
<stop offset="0.0698" stop-color="#A3CD39"/>
<stop offset="0.2599" stop-color="#81C55F"/>
<stop offset="0.9216" stop-color="#0FA8E0"/>
</linearGradient>
</defs>
</svg>