<svg width="120" height="120" viewBox="0 0 120 120" fill="none" xmlns="http://www.w3.org/2000/svg">
<path fill-rule="evenodd" clip-rule="evenodd" d="M60 0C26.8648 0 0 26.8648 0 60C0 93.1352 26.8648 120 60 120C93.1352 120 120 93.1352 120 60C120 26.8648 93.1352 0 60 0ZM60 9.23077C88.0371 9.23077 110.769 31.9629 110.769 60C110.769 88.0371 88.0371 110.769 60 110.769C31.9629 110.769 9.23077 88.0371 9.23077 60C9.23077 31.9629 31.9629 9.23077 60 9.23077ZM86.1798 42.882C84.3729 41.0843 81.4505 41.0917 79.6528 42.8986L52.9061 69.7754L40.1792 57.1075L39.7435 56.7245C37.9297 55.3209 35.3118 55.4548 33.6521 57.1223C31.8535 58.9292 31.8605 61.8512 33.6669 63.6494L49.6685 79.5771L50.1041 79.9602C51.9185 81.3642 54.5368 81.2298 56.1965 79.5614L86.1964 49.4091L86.5791 48.9734C87.9826 47.1591 87.8478 44.5417 86.1798 42.882Z" fill="#21A038"/>
</svg>